<svg width="711" height="440" viewBox="0 0 711 440" fill="none" xmlns="http://www.w3.org/2000/svg">
<line x1="317.1" y1="287.7" x2="236.7" y2="287.7" stroke="#F9B21C" stroke-width="24" stroke-linecap="round"/>
<path d="M232.501 3.2086e-05C227.53 3.16514e-05 223.449 4.04395 223.983 8.98581C228.461 50.4884 263.608 82.8 306.301 82.8C348.994 82.8 384.14 50.4885 388.619 8.98583C389.152 4.04396 385.071 4.54241e-05 380.101 4.49896e-05L232.501 3.2086e-05Z" fill="#F9B21C"/>
<path d="M341.7 -1.78873e-08C342.529 -8.00841e-09 343.2 0.671573 343.2 1.5L343.2 210C343.2 259.706 302.906 300 253.2 300L44.7002 300C43.8718 300 43.2002 299.328 43.2002 298.5L43.2002 90C43.2002 40.2944 83.4946 -3.09696e-06 133.2 -2.50422e-06L341.7 -1.78873e-08Z" fill="#A4B3E7"/>
<line x1="214.5" y1="287.7" x2="134.1" y2="287.7" stroke="#F9B21C" stroke-width="24" stroke-linecap="round"/>
<path d="M222 119.7C222.828 119.7 223.5 120.372 223.5 121.2L223.5 210C223.5 259.706 183.206 300 133.5 300L44.7 300C43.8716 300 43.2 299.328 43.2 298.5L43.2 209.7C43.2 159.994 83.4944 119.7 133.2 119.7L222 119.7Z" fill="#5F62A9"/>
<circle cx="267" cy="62.9999" r="23.1" fill="#36387B"/>
<path d="M498.5 213C499.328 213 500 213.672 500 214.5L500 240C500 273.137 473.137 300 440 300L384.8 300C383.972 300 383.3 299.328 383.3 298.5L383.3 273C383.3 239.863 410.163 213 443.3 213L498.5 213Z" fill="#5F62A9"/>
<path d="M595.7 352.5C594.872 352.5 594.2 353.172 594.2 354L594.2 379.5C594.2 412.637 621.063 439.5 654.2 439.5L709.4 439.5C710.229 439.5 710.9 438.828 710.9 438L710.9 412.5C710.9 379.363 684.037 352.5 650.9 352.5L595.7 352.5Z" fill="#5F62A9"/>
<path d="M639.2 213C640.029 213 640.7 213.672 640.7 214.5L640.7 240C640.7 273.137 613.837 300 580.7 300L525.5 300C524.672 300 524 299.328 524 298.5L524 273C524 239.863 550.863 213 584 213L639.2 213Z" fill="#5F62A9"/>
<path d="M455 352.5C454.172 352.5 453.5 353.172 453.5 354L453.5 379.5C453.5 412.637 480.363 439.5 513.5 439.5L568.7 439.5C569.528 439.5 570.2 438.828 570.2 438L570.2 412.5C570.2 379.363 543.337 352.5 510.2 352.5L455 352.5Z" fill="#5F62A9"/>
<line x1="-118" y1="324.6" x2="641" y2="324.6" stroke="#36387B" stroke-width="24" stroke-linecap="round"/>
</svg>
