<svg width="470" height="227" viewBox="0 0 470 227" fill="none" xmlns="http://www.w3.org/2000/svg">
<path d="M212.4 226.501C211.571 226.501 210.9 225.829 210.9 225.001L210.9 199.501C210.9 166.364 237.763 139.501 270.9 139.501L326.1 139.501C326.928 139.501 327.6 140.173 327.6 141.001L327.6 166.501C327.6 199.638 300.737 226.501 267.6 226.501L212.4 226.501Z" fill="#5F62A9"/>
<path d="M115.2 87.0004C116.028 87.0004 116.7 86.3288 116.7 85.5004L116.7 60.0004C116.7 26.8633 89.8371 0.000351272 56.7 0.000351668L1.50001 0.000352326C0.671584 0.000352336 6.59994e-06 0.671922 6.60982e-06 1.50035L6.9139e-06 27.0004C7.30906e-06 60.1374 26.8629 87.0004 60 87.0004L115.2 87.0004Z" fill="#5F62A9"/>
<path d="M71.7 226.501C70.8716 226.501 70.2 225.829 70.2 225.001L70.2 199.501C70.2 166.364 97.0629 139.501 130.2 139.501L185.4 139.501C186.228 139.501 186.9 140.173 186.9 141.001L186.9 166.501C186.9 199.638 160.037 226.501 126.9 226.501L71.7 226.501Z" fill="#5F62A9"/>
<path d="M255.9 87.0004C256.729 87.0004 257.4 86.3288 257.4 85.5004L257.4 60.0004C257.4 26.8633 230.537 0.000358902 197.4 0.000359297L142.2 0.000359955C141.372 0.000359965 140.7 0.67193 140.7 1.50036L140.7 27.0004C140.7 60.1374 167.563 87.0004 200.7 87.0004L255.9 87.0004Z" fill="#5F62A9"/>
<line x1="653" y1="115" x2="70" y2="115" stroke="#363859" stroke-width="24" stroke-linecap="round"/>
</svg>
