<svg width="841" height="440" viewBox="0 0 841 440" fill="none" xmlns="http://www.w3.org/2000/svg">
<line x1="447.1" y1="287.7" x2="366.7" y2="287.7" stroke="#F9B21C" stroke-width="24" stroke-linecap="round"/>
<path d="M362.5 -0.000212055C357.53 -0.000212489 353.449 4.0437 353.982 8.98557C358.461 50.4882 393.607 82.7998 436.3 82.7998C478.993 82.7998 514.139 50.4882 518.618 8.98559C519.151 4.04372 515.071 -0.000198717 510.1 -0.000199151L362.5 -0.000212055Z" fill="#F9B21C"/>
<path d="M471.7 -1.78873e-08C472.529 -8.00841e-09 473.2 0.671573 473.2 1.5L473.2 210C473.2 259.706 432.906 300 383.2 300L174.7 300C173.872 300 173.2 299.328 173.2 298.5L173.2 90C173.2 40.2944 213.495 -3.09696e-06 263.2 -2.50422e-06L471.7 -1.78873e-08Z" fill="#A4B3E7"/>
<line x1="344.5" y1="287.7" x2="264.1" y2="287.7" stroke="#F9B21C" stroke-width="24" stroke-linecap="round"/>
<path d="M352 119.7C352.828 119.7 353.5 120.372 353.5 121.2L353.5 210C353.5 259.706 313.206 300 263.5 300L174.7 300C173.872 300 173.2 299.329 173.2 298.5L173.2 209.7C173.2 159.995 213.494 119.7 263.2 119.7L352 119.7Z" fill="#5F62A9"/>
<path d="M378 67.125C378.333 60.75 382.5 48 397.125 48C412.75 48 415.917 60.75 416.625 67.125" stroke="#36387B" stroke-width="12.5" stroke-linecap="round"/>
<path d="M628.5 213C629.328 213 630 213.672 630 214.5L630 240C630 273.137 603.137 300 570 300L514.8 300C513.972 300 513.3 299.328 513.3 298.5L513.3 273C513.3 239.863 540.163 213 573.3 213L628.5 213Z" fill="#5F62A9"/>
<path d="M725.7 352.5C724.872 352.5 724.2 353.172 724.2 354L724.2 379.5C724.2 412.637 751.063 439.5 784.2 439.5L839.4 439.5C840.228 439.5 840.9 438.828 840.9 438L840.9 412.5C840.9 379.363 814.037 352.5 780.9 352.5L725.7 352.5Z" fill="#5F62A9"/>
<path d="M769.2 213C770.028 213 770.7 213.672 770.7 214.5L770.7 240C770.7 273.137 743.837 300 710.7 300L655.5 300C654.672 300 654 299.328 654 298.5L654 273C654 239.863 680.863 213 714 213L769.2 213Z" fill="#5F62A9"/>
<path d="M585 352.5C584.172 352.5 583.5 353.172 583.5 354L583.5 379.5C583.5 412.637 610.363 439.5 643.5 439.5L698.7 439.5C699.528 439.5 700.2 438.828 700.2 438L700.2 412.5C700.2 379.363 673.337 352.5 640.2 352.5L585 352.5Z" fill="#5F62A9"/>
<line x1="12" y1="324.6" x2="771" y2="324.6" stroke="#36387B" stroke-width="24" stroke-linecap="round"/>
</svg>
