<svg width="73" height="72" viewBox="0 0 73 72" fill="none" xmlns="http://www.w3.org/2000/svg">
<g style="mix-blend-mode:multiply" opacity="0.1">
<path d="M71.019 0H40.3694C39.4359 0 38.6797 0.756253 38.6797 1.68975V32.3416C38.6797 33.3082 39.4903 34.0834 40.4569 34.0338C57.8625 33.1404 71.8201 19.1828 72.7135 1.7772C72.7607 0.810609 71.9856 0 71.019 0Z" fill="black"/>
<path d="M71.019 37.9638H40.3694C39.4359 37.9638 38.6797 38.72 38.6797 39.6535V70.3031C38.6797 71.2697 39.4903 72.0448 40.4569 71.9952C57.8625 71.1019 71.8201 57.1443 72.7134 39.7386C72.7631 38.772 71.9879 37.9614 71.0213 37.9614L71.019 37.9638Z" fill="black"/>
<path d="M34.1661 0.00234289C15.1345 0.980746 0 16.725 0 36C0 55.275 15.1345 71.0193 34.1661 71.9977C35.187 72.0497 36.0449 71.2296 36.0449 70.2063V1.79372C36.0449 0.770413 35.187 -0.0496495 34.1661 0.00234289ZM21.3925 23.5951C18.7811 23.5951 16.6659 21.4799 16.6659 18.8685C16.6659 16.2571 18.7811 14.1419 21.3925 14.1419C24.004 14.1419 26.1191 16.2571 26.1191 18.8685C26.1191 21.4799 24.004 23.5951 21.3925 23.5951Z" fill="black"/>
</g>
</svg>
