<svg width="841" height="440" viewBox="0 0 841 440" fill="none" xmlns="http://www.w3.org/2000/svg">
<line x1="447.1" y1="288.2" x2="366.7" y2="288.2" stroke="#F9B21C" stroke-width="24" stroke-linecap="round"/>
<path d="M362.5 0.499788C357.53 0.499788 353.449 4.5437 353.982 9.48557C358.461 50.9882 393.607 83.2998 436.3 83.2998C478.993 83.2998 514.139 50.9882 518.618 9.48559C519.151 4.54372 515.071 0.499801 510.1 0.499801L362.5 0.499788Z" fill="#F9B21C"/>
<path d="M471.7 0.5C472.529 0.5 473.2 1.17157 473.2 2L473.2 210.5C473.2 260.206 432.906 300.5 383.2 300.5L174.7 300.5C173.872 300.5 173.2 299.828 173.2 299L173.2 90.5C173.2 40.7944 213.495 0.499997 263.2 0.499997L471.7 0.5Z" fill="#A4B3E7"/>
<line x1="344.5" y1="288.2" x2="264.1" y2="288.2" stroke="#F9B21C" stroke-width="24" stroke-linecap="round"/>
<path d="M352 120.2C352.828 120.2 353.5 120.872 353.5 121.7L353.5 210.5C353.5 260.206 313.206 300.5 263.5 300.5L174.7 300.5C173.872 300.5 173.2 299.829 173.2 299L173.2 210.2C173.2 160.495 213.494 120.2 263.2 120.2L352 120.2Z" fill="#5F62A9"/>
<path fill-rule="evenodd" clip-rule="evenodd" d="M388.057 63.6292C385.296 66.4961 384.358 70.8514 386.783 74.0079C390.124 78.3576 394.915 81.64 400.659 83.0385C414.049 86.2985 427.546 78.0868 430.806 64.6973C433.295 54.4749 429.097 44.1897 421.014 38.4454C417.775 36.1441 413.465 37.249 410.709 40.1104L388.057 63.6292Z" fill="#36387B"/>
<path d="M628.5 213.5C629.328 213.5 630 214.172 630 215L630 240.5C630 273.637 603.137 300.5 570 300.5L514.8 300.5C513.972 300.5 513.3 299.828 513.3 299L513.3 273.5C513.3 240.363 540.163 213.5 573.3 213.5L628.5 213.5Z" fill="#5F62A9"/>
<path d="M725.7 353C724.872 353 724.2 353.672 724.2 354.5L724.2 380C724.2 413.137 751.063 440 784.2 440L839.4 440C840.228 440 840.9 439.328 840.9 438.5L840.9 413C840.9 379.863 814.037 353 780.9 353L725.7 353Z" fill="#5F62A9"/>
<path d="M769.2 213.5C770.028 213.5 770.7 214.172 770.7 215L770.7 240.5C770.7 273.637 743.837 300.5 710.7 300.5L655.5 300.5C654.672 300.5 654 299.828 654 299L654 273.5C654 240.363 680.863 213.5 714 213.5L769.2 213.5Z" fill="#5F62A9"/>
<path d="M585 353C584.172 353 583.5 353.672 583.5 354.5L583.5 380C583.5 413.137 610.363 440 643.5 440L698.7 440C699.528 440 700.2 439.328 700.2 438.5L700.2 413C700.2 379.863 673.337 353 640.2 353L585 353Z" fill="#5F62A9"/>
<line x1="12" y1="325.1" x2="771" y2="325.1" stroke="#36387B" stroke-width="24" stroke-linecap="round"/>
</svg>
